<svg width="32" height="32" viewBox="0 0 32 32" fill="none" xmlns="http://www.w3.org/2000/svg">
  <path d="M16 2C13.2386 2 11 4.23858 11 7V15C11 17.7614 13.2386 20 16 20C18.7614 20 21 17.7614 21 15V7C21 4.23858 18.7614 2 16 2Z" fill="currentColor"/>
  <path d="M8 14C8 13.4477 7.55228 13 7 13C6.44772 13 6 13.4477 6 14C6 19.5228 10.4772 24 16 24C21.5228 24 26 19.5228 26 14C26 13.4477 25.5523 13 25 13C24.4477 13 24 13.4477 24 14C24 18.4183 20.4183 22 16 22C11.5817 22 8 18.4183 8 14Z" fill="currentColor"/>
  <path d="M16 26C16.5523 26 17 26.4477 17 27V29C17 29.5523 16.5523 30 16 30C15.4477 30 15 29.5523 15 27V27C15 26.4477 15.4477 26 16 26Z" fill="currentColor"/>
  <path d="M12 28C12 28.5523 12.4477 29 13 29H19C19.5523 29 20 28.5523 20 28C20 27.4477 19.5523 27 19 27H13C12.4477 27 12 27.4477 12 28Z" fill="currentColor"/>
</svg>